<svg xmlns="http://www.w3.org/2000/svg" xmlns:xlink="http://www.w3.org/1999/xlink" version="1.1" id="Layer_1" x="0px" y="0px" style="enable-background:new 0 0 1366 768;" xml:space="preserve" viewBox="508.11 334.21 116.48 20.6">
<style type="text/css">
	.st0{fill:#DFDFDF;}
	.st1{fill:#60ACF7;}
	.st2{fill:#E8E8E8;}
	.st3{fill:#F2F2F2;}
	.st4{fill:#EAEAEA;}
	.st5{fill:#FCFCFC;}
	.st6{fill:#FDFDFD;}
</style>
<g>
	<path class="st0" d="M542.56,354.46c-3.28,0.57-4.98-0.51-5.59-3.93c-0.61-3.45-2.02-6.77-3.3-10.82   c-1.93,3.64-2.24,6.97-3.16,10.12c-0.84,2.89-1.85,5.61-5.93,4.62c-0.26-0.73-0.52-1.45-0.78-2.18c-0.27-2.14,2.52-4.42,0.87-5.97   c-1.38-1.3-3.76,1.12-5.88,0.95c-1.97-0.16-3.64,0.16-3.18,2.62c0.81,4.34-1.55,5.15-5.27,4.63c-0.73-0.1-1.49-0.01-2.23-0.01   c0-6.75,0-13.5,0-20.25c3.48,0.01,6.97-0.08,10.45,0.05c5.53,0.19,6.63,1.18,8.08,6.82c1.4-0.22,1.71-1.47,1.88-2.35   c0.69-3.56,3.06-4.07,6.27-3.85c1.78,0.12,2.67,0.74,3.25,2.31c1.96,5.29,4.01,10.55,6.03,15.83   C543.11,353.08,542.59,353.53,542.56,354.46z M526.09,344.37c0.43-0.3,0.81-0.82,0.19-1.05c-0.84-0.31-0.85,0.5-0.96,1.05   C525.58,344.93,525.83,344.89,526.09,344.37z M520.05,340.8c-0.04-1.41-0.84-2.09-2.3-2.18c-1.58-0.1-2.2,0.58-2.19,2.09   c0.02,1.39,0.36,2.3,2.05,2.22C519.05,342.85,519.94,342.28,520.05,340.8z"/>
	<path class="st0" d="M603.96,354.48c-4.35,0.9-6.56-0.89-7.45-5.03c-0.56-2.62-1.01-5.39-2.92-8.09c-2.07,3.32-2.7,6.71-3.61,9.96   c-0.66,2.36-1.79,3.31-4.42,3.24c-6.59-0.17-13.19-0.06-19.79-0.06c-0.01-0.48-0.01-0.97-0.02-1.45c0-4.45-0.12-8.9,0.04-13.35   c0.07-1.93-1.39-4.76,2.87-4.8c4.51-0.05,2.89,2.95,3.06,4.99c0.19,2.39,0.1,4.81,0.03,7.21c-0.05,1.69,0.67,2.47,2.42,2.33   c0.12-0.01,0.25,0,0.37,0c9.94,0.52,10.15,0.58,13.65-10.07c1.25-3.8,3.25-4.87,6.97-4.43c1.58,0.19,2.41,0.68,2.93,2.18   c1.88,5.33,3.92,10.61,5.9,15.91C603.99,353.51,603.98,353.99,603.96,354.48z"/>
	<path class="st0" d="M604.72,353.05c0.01-5.29,0.09-10.58-0.01-15.86c-0.04-2.14,0.61-3.09,2.96-2.95c3.83,0.23,7.69-0.3,11.49,0.7   c2.12,0.56,3.68,1.57,4.14,3.65c0.46,2.09,0.26,4.27-1.76,5.5c-2,1.22-1.87,2.15-0.36,3.58c0.68,0.65,1.18,1.58,1.49,2.46   c0.5,1.39,3.12,2.44,1.27,4.17c-1.38,1.29-6.18-0.12-7.13-1.81c-0.77-1.37-1.49-2.77-2.2-4.18c-0.53-1.04-1.21-1.86-2.55-1.7   c-1.67,0.2-1.25,1.5-1.35,2.51c-0.01,0.12,0,0.24,0,0.36c-0.16,5.02-0.16,5.02-5.23,4.98   C605.46,353.89,605.32,353.35,604.72,353.05z M613.55,338.58c-0.81-0.04-2.17,0-2.09,1.96c0.05,1.07-0.11,2.44,1.52,2.27   c1.46-0.16,3.46-0.05,3.64-2.16C616.75,339.15,615.58,338.64,613.55,338.58z"/>
	<path class="st0" d="M564.27,354.5c-4.73,0.93-7.74-0.79-9.16-5.3c-0.41-1.3-1.11-2.91-3.05-2.54c-2,0.39-1.2,2.1-1.23,3.26   c-0.15,4.6-0.1,4.6-5.26,4.55c-0.03-0.58-0.17-1.12-0.76-1.42c0-5.16,0.11-10.33-0.03-15.49c-0.07-2.43,0.61-3.57,3.32-3.32   c3.81,0.35,7.7-0.57,11.46,0.75c3.38,1.18,4.83,6.35,2.15,8.7c-1.86,1.64-1.83,2.56-0.23,4.31c1.27,1.4,1.9,3.34,2.82,5.04   C564.28,353.53,564.28,354.02,564.27,354.5z M553.7,338.59c-1.33,0.05-2.89-0.28-2.89,1.79c0,1.58,0.68,2.72,2.39,2.44   c1.32-0.22,3.29-0.06,3.49-1.98C556.9,338.85,555.33,338.58,553.7,338.59z"/>
	<path class="st1" d="M595.51,353.13c-0.49,1.59-1.71,1.38-2.79,1.36c-1.02-0.02-2.21-0.22-1.66-1.56c0.51-1.24,0.74-3.32,2.41-3.12   C594.31,349.91,594.88,352.03,595.51,353.13z"/>
	<path class="st1" d="M535.04,352.62c0.16,1.59-0.61,1.95-1.79,1.89c-1.07-0.05-2.59,0.05-2.11-1.48c0.37-1.19,0.36-3.3,2-3.28   C534.43,349.75,534.68,351.66,535.04,352.62z"/>
	<path class="st0" d="M523.79,352.28c0.26,0.73,0.52,1.45,0.78,2.18C522.82,354.24,522.69,353.47,523.79,352.28z"/>
	<path class="st0" d="M542.56,354.46c0.03-0.94,0.56-1.38,1.5-1.41c0,0,0.01-0.01,0.01-0.01c-0.01,0.48-0.02,0.96-0.03,1.44   C543.54,354.47,543.05,354.47,542.56,354.46z"/>
	<path class="st2" d="M544.04,354.47c0.01-0.48,0.02-0.96,0.03-1.44c0.24,0.01,0.49,0.02,0.73,0.02c0.6,0.3,0.73,0.83,0.76,1.42   C545.06,354.47,544.55,354.47,544.04,354.47z"/>
	<path class="st3" d="M564.27,354.5c0-0.48,0.01-0.96,0.01-1.45c0.49,0,0.99,0,1.48,0c0,0.48,0.01,0.97,0.02,1.45   C565.28,354.5,564.78,354.5,564.27,354.5z"/>
	<path class="st4" d="M604.72,353.05c0.6,0.3,0.73,0.84,0.77,1.42c-0.51,0-1.02,0-1.53,0c0.01-0.48,0.03-0.97,0.05-1.45   C604.24,353.04,604.48,353.05,604.72,353.05z"/>
	<path class="st5" d="M520.05,340.8c-0.12,1.49-1,2.05-2.43,2.12c-1.69,0.08-2.04-0.83-2.05-2.22c-0.02-1.51,0.6-2.19,2.19-2.09   C519.21,338.71,520.01,339.38,520.05,340.8z"/>
	<path class="st0" d="M525.32,344.37c0.11-0.54,0.12-1.36,0.96-1.05c0.62,0.23,0.24,0.75-0.19,1.05   C525.83,344.37,525.58,344.37,525.32,344.37z"/>
	<path class="st6" d="M525.32,344.37c0.26,0,0.51,0,0.77,0C525.83,344.89,525.58,344.93,525.32,344.37z"/>
	<path class="st6" d="M613.55,338.58c2.03,0.06,3.2,0.56,3.07,2.07c-0.18,2.11-2.18,2-3.64,2.16c-1.63,0.18-1.47-1.2-1.52-2.27   C611.38,338.58,612.74,338.54,613.55,338.58z"/>
	<path class="st6" d="M553.7,338.59c1.63-0.02,3.2,0.26,2.99,2.25c-0.2,1.91-2.17,1.76-3.49,1.98c-1.71,0.28-2.39-0.86-2.39-2.44   C550.81,338.31,552.37,338.64,553.7,338.59z"/>
</g>
</svg>