<?xml version="1.0" encoding="UTF-8"?>
<svg xmlns="http://www.w3.org/2000/svg" xmlns:xlink="http://www.w3.org/1999/xlink" width="900px" height="159px" viewBox="0 0 878 159" version="1.1">
<g id="surface1">
<path style=" stroke:none;fill-rule:nonzero;fill:rgb(87.45098%,87.45098%,87.45098%);fill-opacity:1;" d="M 259.675781 154.523438 C 234.953125 158.824219 222.136719 150.679688 217.539062 124.890625 C 212.941406 98.878906 202.3125 73.84375 192.664062 43.308594 C 178.117188 70.753906 175.78125 95.863281 168.847656 119.613281 C 162.515625 141.40625 154.902344 161.914062 124.148438 154.449219 C 122.1875 148.945312 120.226562 143.515625 118.269531 138.011719 C 116.234375 121.875 137.261719 104.683594 124.824219 92.996094 C 114.421875 83.195312 96.484375 101.441406 80.503906 100.160156 C 65.652344 98.953125 53.066406 101.367188 56.535156 119.914062 C 62.640625 152.640625 44.851562 158.746094 16.808594 154.828125 C 11.308594 154.074219 5.578125 154.75 0 154.75 C 0 103.855469 0 52.957031 0 2.0625 C 26.230469 2.136719 52.539062 1.457031 78.769531 2.4375 C 120.453125 3.871094 128.746094 11.335938 139.675781 53.863281 C 150.226562 52.203125 152.566406 42.777344 153.847656 36.144531 C 159.046875 9.300781 176.910156 5.453125 201.109375 7.113281 C 214.523438 8.019531 221.234375 12.695312 225.605469 24.53125 C 240.378906 64.417969 255.832031 104.082031 271.058594 143.894531 C 263.820312 144.121094 259.902344 147.511719 259.675781 154.523438 Z M 135.527344 78.445312 C 138.769531 76.183594 141.636719 72.261719 136.960938 70.527344 C 130.628906 68.191406 130.554688 74.296875 129.726562 78.445312 C 131.683594 82.667969 133.570312 82.367188 135.527344 78.445312 Z M 90 51.527344 C 89.699219 40.894531 83.667969 35.765625 72.664062 35.089844 C 60.753906 34.335938 56.082031 39.460938 56.15625 50.847656 C 56.308594 61.328125 58.871094 68.191406 71.609375 67.585938 C 82.464844 66.984375 89.171875 62.683594 90 51.527344 Z M 90 51.527344 "/>
<path style=" stroke:none;fill-rule:nonzero;fill:rgb(87.45098%,87.45098%,87.45098%);fill-opacity:1;" d="M 722.496094 154.675781 C 689.707031 161.460938 673.046875 147.964844 666.339844 116.75 C 662.117188 96.992188 658.726562 76.105469 644.328125 55.75 C 628.726562 80.78125 623.976562 106.34375 617.117188 130.847656 C 612.144531 148.644531 603.625 155.808594 583.800781 155.277344 C 534.125 153.996094 484.378906 154.828125 434.628906 154.828125 C 434.550781 151.207031 434.550781 147.511719 434.476562 143.894531 C 434.476562 110.339844 433.574219 76.785156 434.777344 43.230469 C 435.304688 28.679688 424.300781 7.339844 456.414062 7.039062 C 490.40625 6.660156 478.195312 29.28125 479.476562 44.664062 C 480.910156 62.683594 480.230469 80.933594 479.703125 99.027344 C 479.328125 111.773438 484.753906 117.652344 497.945312 116.597656 C 498.851562 116.523438 499.828125 116.597656 500.734375 116.597656 C 575.660156 120.519531 577.242188 120.972656 603.625 40.667969 C 613.046875 12.015625 628.121094 3.945312 656.164062 7.265625 C 668.074219 8.695312 674.328125 12.390625 678.25 23.703125 C 692.421875 63.890625 707.796875 103.703125 722.722656 143.667969 C 722.722656 147.363281 722.644531 150.980469 722.496094 154.675781 Z M 722.496094 154.675781 "/>
<path style=" stroke:none;fill-rule:nonzero;fill:rgb(87.45098%,87.45098%,87.45098%);fill-opacity:1;" d="M 728.222656 143.894531 C 728.300781 104.003906 728.902344 64.117188 728.148438 24.304688 C 727.847656 8.167969 732.746094 1.007812 750.460938 2.0625 C 779.332031 3.796875 808.425781 -0.199219 837.070312 7.339844 C 853.050781 11.5625 864.808594 19.179688 868.277344 34.863281 C 871.742188 50.621094 870.234375 67.058594 855.011719 76.332031 C 839.933594 85.53125 840.914062 92.542969 852.296875 103.328125 C 857.421875 108.226562 861.191406 115.242188 863.527344 121.875 C 867.296875 132.355469 887.046875 140.273438 873.101562 153.320312 C 862.699219 163.046875 826.515625 152.414062 819.355469 139.671875 C 813.550781 129.339844 808.125 118.785156 802.773438 108.152344 C 798.777344 100.3125 793.652344 94.128906 783.550781 95.335938 C 770.964844 96.84375 774.128906 106.644531 773.375 114.261719 C 773.300781 115.164062 773.375 116.070312 773.375 116.976562 C 772.167969 154.828125 772.167969 154.828125 733.953125 154.523438 C 733.800781 150.226562 732.746094 146.15625 728.222656 143.894531 Z M 794.78125 34.785156 C 788.675781 34.484375 778.425781 34.785156 779.027344 49.566406 C 779.40625 57.632812 778.199219 67.964844 790.488281 66.679688 C 801.492188 65.476562 816.566406 66.304688 817.925781 50.394531 C 818.902344 39.085938 810.085938 35.238281 794.78125 34.785156 Z M 794.78125 34.785156 "/>
<path style=" stroke:none;fill-rule:nonzero;fill:rgb(87.45098%,87.45098%,87.45098%);fill-opacity:1;" d="M 423.320312 154.828125 C 387.667969 161.839844 364.980469 148.871094 354.277344 114.863281 C 351.183594 105.0625 345.910156 92.921875 331.285156 95.710938 C 316.210938 98.652344 322.238281 111.546875 322.015625 120.292969 C 320.882812 154.976562 321.261719 154.976562 282.363281 154.601562 C 282.140625 150.226562 281.082031 146.15625 276.636719 143.894531 C 276.636719 104.984375 277.464844 66.003906 276.410156 27.09375 C 275.882812 8.773438 281.007812 0.175781 301.4375 2.0625 C 330.15625 4.699219 359.476562 -2.234375 387.820312 7.71875 C 413.296875 16.613281 424.226562 55.597656 404.023438 73.316406 C 390.003906 85.683594 390.230469 92.621094 402.292969 105.816406 C 411.863281 116.371094 416.613281 131 423.546875 143.816406 C 423.398438 147.511719 423.398438 151.207031 423.320312 154.828125 Z M 343.648438 34.863281 C 333.621094 35.238281 321.863281 32.75 321.863281 48.359375 C 321.863281 60.273438 326.988281 68.867188 339.878906 66.757812 C 349.828125 65.097656 364.675781 66.304688 366.183594 51.828125 C 367.769531 36.824219 355.933594 34.785156 343.648438 34.863281 Z M 343.648438 34.863281 "/>
<path style=" stroke:none;fill-rule:nonzero;fill:rgb(37.647059%,67.45098%,96.862745%);fill-opacity:1;" d="M 658.800781 144.496094 C 655.109375 156.484375 645.910156 154.902344 637.769531 154.75 C 630.082031 154.601562 621.113281 153.09375 625.257812 142.988281 C 629.101562 133.640625 630.835938 117.957031 643.425781 119.464844 C 649.757812 120.21875 654.050781 136.203125 658.800781 144.496094 Z M 658.800781 144.496094 "/>
<path style=" stroke:none;fill-rule:nonzero;fill:rgb(37.647059%,67.45098%,96.862745%);fill-opacity:1;" d="M 202.992188 140.652344 C 204.199219 152.640625 198.394531 155.355469 189.5 154.902344 C 181.433594 154.523438 169.976562 155.277344 173.59375 143.742188 C 176.382812 134.769531 176.308594 118.859375 188.671875 119.011719 C 198.394531 119.011719 200.277344 133.414062 202.992188 140.652344 Z M 202.992188 140.652344 "/>
<path style=" stroke:none;fill-rule:nonzero;fill:rgb(87.45098%,87.45098%,87.45098%);fill-opacity:1;" d="M 118.191406 138.085938 C 120.152344 143.59375 122.113281 149.019531 124.070312 154.523438 C 110.878906 152.867188 109.902344 147.058594 118.191406 138.085938 Z M 118.191406 138.085938 "/>
<path style=" stroke:none;fill-rule:nonzero;fill:rgb(87.45098%,87.45098%,87.45098%);fill-opacity:1;" d="M 259.675781 154.523438 C 259.902344 147.4375 263.898438 144.121094 270.984375 143.894531 C 270.984375 143.894531 271.058594 143.816406 271.058594 143.816406 C 270.984375 147.4375 270.90625 151.058594 270.832031 154.675781 C 267.0625 154.601562 263.371094 154.601562 259.675781 154.523438 Z M 259.675781 154.523438 "/>
<path style=" stroke:none;fill-rule:nonzero;fill:rgb(90.980392%,90.980392%,90.980392%);fill-opacity:1;" d="M 270.832031 154.601562 C 270.90625 150.980469 270.984375 147.363281 271.058594 143.742188 C 272.867188 143.816406 274.75 143.894531 276.5625 143.894531 C 281.082031 146.15625 282.0625 150.152344 282.289062 154.601562 C 278.519531 154.601562 274.675781 154.601562 270.832031 154.601562 Z M 270.832031 154.601562 "/>
<path style=" stroke:none;fill-rule:nonzero;fill:rgb(94.901961%,94.901961%,94.901961%);fill-opacity:1;" d="M 423.320312 154.828125 C 423.320312 151.207031 423.398438 147.589844 423.398438 143.894531 C 427.089844 143.894531 430.859375 143.894531 434.550781 143.894531 C 434.550781 147.511719 434.628906 151.207031 434.703125 154.828125 C 430.933594 154.828125 427.164062 154.828125 423.320312 154.828125 Z M 423.320312 154.828125 "/>
<path style=" stroke:none;fill-rule:nonzero;fill:rgb(91.764706%,91.764706%,91.764706%);fill-opacity:1;" d="M 728.222656 143.894531 C 732.746094 146.15625 733.726562 150.226562 734.027344 154.601562 C 730.183594 154.601562 726.339844 154.601562 722.496094 154.601562 C 722.570312 150.980469 722.722656 147.285156 722.871094 143.667969 C 724.605469 143.816406 726.414062 143.894531 728.222656 143.894531 Z M 728.222656 143.894531 "/>
<path style=" stroke:none;fill-rule:nonzero;fill:rgb(98.823529%,98.823529%,98.823529%);fill-opacity:1;" d="M 90 51.527344 C 89.097656 62.761719 82.464844 66.984375 71.683594 67.511719 C 58.945312 68.113281 56.308594 61.253906 56.230469 50.773438 C 56.082031 39.386719 60.753906 34.257812 72.738281 35.011719 C 83.667969 35.765625 89.699219 40.820312 90 51.527344 Z M 90 51.527344 "/>
<path style=" stroke:none;fill-rule:nonzero;fill:rgb(87.45098%,87.45098%,87.45098%);fill-opacity:1;" d="M 129.726562 78.445312 C 130.554688 74.371094 130.628906 68.191406 136.960938 70.527344 C 141.636719 72.261719 138.769531 76.183594 135.527344 78.445312 C 133.570312 78.445312 131.683594 78.445312 129.726562 78.445312 Z M 129.726562 78.445312 "/>
<path style=" stroke:none;fill-rule:nonzero;fill:rgb(99.215686%,99.215686%,99.215686%);fill-opacity:1;" d="M 129.726562 78.445312 C 131.683594 78.445312 133.570312 78.445312 135.527344 78.445312 C 133.570312 82.367188 131.683594 82.667969 129.726562 78.445312 Z M 129.726562 78.445312 "/>
<path style=" stroke:none;fill-rule:nonzero;fill:rgb(99.215686%,99.215686%,99.215686%);fill-opacity:1;" d="M 794.78125 34.785156 C 810.085938 35.238281 818.902344 39.007812 817.925781 50.394531 C 816.566406 66.304688 801.492188 65.476562 790.488281 66.679688 C 778.199219 68.039062 779.40625 57.632812 779.027344 49.566406 C 778.425781 34.785156 788.675781 34.484375 794.78125 34.785156 Z M 794.78125 34.785156 "/>
<path style=" stroke:none;fill-rule:nonzero;fill:rgb(99.215686%,99.215686%,99.215686%);fill-opacity:1;" d="M 343.648438 34.863281 C 355.933594 34.710938 367.769531 36.824219 366.183594 51.828125 C 364.675781 66.230469 349.828125 65.097656 339.878906 66.757812 C 326.988281 68.867188 321.863281 60.273438 321.863281 48.359375 C 321.863281 32.75 333.621094 35.238281 343.648438 34.863281 Z M 343.648438 34.863281 "/>
</g>
</svg>
